<svg width="8" height="12" viewBox="0 0 8 12" fill="none" xmlns="http://www.w3.org/2000/svg">
<path d="M6.95001 5.40832L2.23334 0.69999C2.15587 0.621883 2.0637 0.559888 1.96215 0.517581C1.8606 0.475273 1.75168 0.453491 1.64167 0.453491C1.53166 0.453491 1.42274 0.475273 1.32119 0.517581C1.21964 0.559888 1.12747 0.621883 1.05001 0.69999C0.894796 0.856125 0.807678 1.06734 0.807678 1.28749C0.807678 1.50764 0.894796 1.71885 1.05001 1.87499L5.17501 6.04166L1.05001 10.1667C0.894796 10.3228 0.807678 10.534 0.807678 10.7542C0.807678 10.9743 0.894796 11.1855 1.05001 11.3417C1.12718 11.4204 1.21922 11.483 1.32078 11.526C1.42235 11.5689 1.53142 11.5912 1.64167 11.5917C1.75193 11.5912 1.861 11.5689 1.96256 11.526C2.06412 11.483 2.15616 11.4204 2.23334 11.3417L6.95001 6.63332C7.03459 6.55529 7.1021 6.46058 7.14827 6.35516C7.19445 6.24975 7.21828 6.13591 7.21828 6.02082C7.21828 5.90574 7.19445 5.7919 7.14827 5.68648C7.1021 5.58107 7.03459 5.48636 6.95001 5.40832Z" fill="#2F448A"/>
</svg>
