<svg width="16" height="16" viewBox="0 0 16 16" fill="none" xmlns="http://www.w3.org/2000/svg">
<path d="M11.3332 9.88664C11.2083 10.0108 11.0393 10.0805 10.8632 10.0805C10.6871 10.0805 10.5181 10.0108 10.3932 9.88664L7.99988 7.52664L5.63988 9.88664C5.51498 10.0108 5.34601 10.0805 5.16988 10.0805C4.99376 10.0805 4.82479 10.0108 4.69988 9.88664C4.6374 9.82467 4.5878 9.75093 4.55396 9.66969C4.52011 9.58846 4.50269 9.50132 4.50269 9.41331C4.50269 9.3253 4.52011 9.23817 4.55396 9.15693C4.5878 9.07569 4.6374 9.00195 4.69988 8.93998L7.52655 6.11331C7.58853 6.05082 7.66226 6.00123 7.7435 5.96738C7.82474 5.93354 7.91188 5.91611 7.99988 5.91611C8.08789 5.91611 8.17503 5.93354 8.25627 5.96738C8.33751 6.00123 8.41124 6.05082 8.47322 6.11331L11.3332 8.93998C11.3957 9.00195 11.4453 9.07569 11.4791 9.15693C11.513 9.23817 11.5304 9.3253 11.5304 9.41331C11.5304 9.50132 11.513 9.58846 11.4791 9.66969C11.4453 9.75093 11.3957 9.82467 11.3332 9.88664Z" fill="#2F448A"/>
</svg>
