<svg width="16" height="16" viewBox="0 0 16 16" fill="none" xmlns="http://www.w3.org/2000/svg">
<path d="M11.3332 6.11336C11.2083 5.98919 11.0393 5.91949 10.8632 5.91949C10.6871 5.91949 10.5181 5.98919 10.3932 6.11336L7.99988 8.47336L5.63988 6.11336C5.51498 5.98919 5.34601 5.91949 5.16988 5.91949C4.99376 5.91949 4.82479 5.98919 4.69988 6.11336C4.6374 6.17533 4.5878 6.24907 4.55396 6.33031C4.52011 6.41154 4.50269 6.49868 4.50269 6.58669C4.50269 6.6747 4.52011 6.76183 4.55396 6.84307C4.5878 6.92431 4.6374 6.99805 4.69988 7.06002L7.52655 9.88669C7.58853 9.94918 7.66226 9.99877 7.7435 10.0326C7.82474 10.0665 7.91188 10.0839 7.99988 10.0839C8.08789 10.0839 8.17503 10.0665 8.25627 10.0326C8.33751 9.99877 8.41124 9.94918 8.47322 9.88669L11.3332 7.06002C11.3957 6.99805 11.4453 6.92431 11.4791 6.84307C11.513 6.76183 11.5304 6.6747 11.5304 6.58669C11.5304 6.49868 11.513 6.41154 11.4791 6.33031C11.4453 6.24907 11.3957 6.17533 11.3332 6.11336Z" fill="#0C1227"/>
</svg>
