<svg width="22" height="22" viewBox="0 0 22 22" fill="none" xmlns="http://www.w3.org/2000/svg">
<rect width="22" height="22" rx="11" fill="#2F448A"/>
<path d="M16.0323 7.40752C15.9626 7.33722 15.8797 7.28143 15.7883 7.24335C15.6969 7.20527 15.5988 7.18567 15.4998 7.18567C15.4008 7.18567 15.3028 7.20527 15.2114 7.24335C15.12 7.28143 15.0371 7.33722 14.9673 7.40752L9.37984 13.0025L7.03234 10.6475C6.95995 10.5776 6.87449 10.5226 6.78085 10.4857C6.68721 10.4488 6.58722 10.4307 6.48658 10.4324C6.38595 10.4342 6.28664 10.4557 6.19433 10.4958C6.10202 10.536 6.01852 10.5939 5.94859 10.6663C5.87866 10.7387 5.82368 10.8241 5.78677 10.9178C5.74987 11.0114 5.73177 11.1114 5.73351 11.212C5.73525 11.3127 5.7568 11.412 5.79692 11.5043C5.83704 11.5966 5.89495 11.6801 5.96734 11.75L8.84734 14.63C8.91706 14.7003 9.00001 14.7561 9.09141 14.7942C9.1828 14.8323 9.28083 14.8519 9.37984 14.8519C9.47885 14.8519 9.57688 14.8323 9.66827 14.7942C9.75967 14.7561 9.84262 14.7003 9.91234 14.63L16.0323 8.51002C16.1085 8.43979 16.1692 8.35455 16.2108 8.25967C16.2523 8.1648 16.2738 8.06234 16.2738 7.95877C16.2738 7.85519 16.2523 7.75274 16.2108 7.65786C16.1692 7.56299 16.1085 7.47775 16.0323 7.40752Z" fill="white"/>
</svg>
