<svg width="12" height="12" viewBox="0 0 12 12" fill="none" xmlns="http://www.w3.org/2000/svg">
<path d="M7.05794 6.00002L11.7829 1.28252C11.9242 1.14129 12.0035 0.949743 12.0035 0.750017C12.0035 0.550291 11.9242 0.358745 11.7829 0.217517C11.6417 0.0762892 11.4502 -0.00305176 11.2504 -0.00305176C11.0507 -0.00305176 10.8592 0.0762892 10.7179 0.217517L6.00044 4.94252L1.28294 0.217517C1.14171 0.0762892 0.950169 -0.00305158 0.750443 -0.00305158C0.550716 -0.00305158 0.35917 0.0762892 0.217942 0.217517C0.0767147 0.358745 -0.00262612 0.550291 -0.00262612 0.750017C-0.00262612 0.949743 0.0767147 1.14129 0.217942 1.28252L4.94294 6.00002L0.217942 10.7175C0.147646 10.7872 0.0918506 10.8702 0.0537741 10.9616C0.0156976 11.053 -0.00390625 11.151 -0.00390625 11.25C-0.00390625 11.349 0.0156976 11.4471 0.0537741 11.5384C0.0918506 11.6298 0.147646 11.7128 0.217942 11.7825C0.287665 11.8528 0.370615 11.9086 0.46201 11.9467C0.553404 11.9848 0.651434 12.0044 0.750443 12.0044C0.849451 12.0044 0.947481 11.9848 1.03888 11.9467C1.13027 11.9086 1.21322 11.8528 1.28294 11.7825L6.00044 7.05752L10.7179 11.7825C10.7877 11.8528 10.8706 11.9086 10.962 11.9467C11.0534 11.9848 11.1514 12.0044 11.2504 12.0044C11.3495 12.0044 11.4475 11.9848 11.5389 11.9467C11.6303 11.9086 11.7132 11.8528 11.7829 11.7825C11.8532 11.7128 11.909 11.6298 11.9471 11.5384C11.9852 11.4471 12.0048 11.349 12.0048 11.25C12.0048 11.151 11.9852 11.053 11.9471 10.9616C11.909 10.8702 11.8532 10.7872 11.7829 10.7175L7.05794 6.00002Z" fill="#9EA0A9"/>
</svg>
