<?xml version="1.0" encoding="UTF-8"?>
<svg xmlns="http://www.w3.org/2000/svg" xmlns:xlink="http://www.w3.org/1999/xlink" width="8px" height="8px" viewBox="0 0 8 8" version="1.1">
<g id="surface1">
<path style=" stroke:none;fill-rule:nonzero;fill:rgb(63.921571%,63.921571%,63.921571%);fill-opacity:1;" d="M 4.707031 4 L 7.855469 0.855469 C 7.949219 0.761719 8.003906 0.632812 8.003906 0.5 C 8.003906 0.367188 7.949219 0.238281 7.855469 0.144531 C 7.761719 0.0507812 7.632812 -0.00390625 7.5 -0.00390625 C 7.367188 -0.00390625 7.238281 0.0507812 7.144531 0.144531 L 4 3.296875 L 0.855469 0.144531 C 0.761719 0.0507812 0.632812 -0.00390625 0.5 -0.00390625 C 0.367188 -0.00390625 0.238281 0.0507812 0.144531 0.144531 C 0.0507812 0.238281 0 0.367188 0 0.5 C 0 0.632812 0.0507812 0.761719 0.144531 0.855469 L 3.296875 4 L 0.144531 7.144531 C 0.0976562 7.191406 0.0625 7.246094 0.0351562 7.308594 C 0.0117188 7.367188 -0.00390625 7.433594 -0.00390625 7.5 C -0.00390625 7.566406 0.0117188 7.632812 0.0351562 7.691406 C 0.0625 7.753906 0.0976562 7.808594 0.144531 7.855469 C 0.191406 7.902344 0.246094 7.9375 0.308594 7.964844 C 0.367188 7.988281 0.433594 8.003906 0.5 8.003906 C 0.566406 8.003906 0.632812 7.988281 0.691406 7.964844 C 0.753906 7.9375 0.808594 7.902344 0.855469 7.855469 L 4 4.703125 L 7.144531 7.855469 C 7.191406 7.902344 7.246094 7.9375 7.308594 7.964844 C 7.367188 7.988281 7.433594 8.003906 7.5 8.003906 C 7.566406 8.003906 7.632812 7.988281 7.691406 7.964844 C 7.753906 7.9375 7.808594 7.902344 7.855469 7.855469 C 7.902344 7.808594 7.9375 7.753906 7.964844 7.691406 C 7.988281 7.632812 8.003906 7.566406 8.003906 7.5 C 8.003906 7.433594 7.988281 7.367188 7.964844 7.308594 C 7.9375 7.246094 7.902344 7.191406 7.855469 7.144531 Z M 4.707031 4 "/>
</g>
</svg>
