<svg width="115" height="40" viewBox="0 0 115 40" fill="none" xmlns="http://www.w3.org/2000/svg">
<path fill-rule="evenodd" clip-rule="evenodd" d="M9.79747 4.79747C8.33301 6.26194 8.33301 8.61896 8.33301 13.333V26.6663C8.33301 31.3803 8.33301 33.7373 9.79747 35.2018C11.2619 36.6663 13.619 36.6663 18.333 36.6663H21.6663C26.3803 36.6663 28.7373 36.6663 30.2018 35.2018C31.6663 33.7373 31.6663 31.3803 31.6663 26.6663V13.333C31.6663 8.61896 31.6663 6.26194 30.2018 4.79747C28.7373 3.33301 26.3803 3.33301 21.6663 3.33301H18.333C13.619 3.33301 11.2619 3.33301 9.79747 4.79747ZM13.7497 28.333C13.7497 27.6427 14.3093 27.083 14.9997 27.083H19.9997C20.69 27.083 21.2497 27.6427 21.2497 28.333C21.2497 29.0233 20.69 29.583 19.9997 29.583H14.9997C14.3093 29.583 13.7497 29.0233 13.7497 28.333ZM14.9997 20.4163C14.3093 20.4163 13.7497 20.976 13.7497 21.6663C13.7497 22.3567 14.3093 22.9163 14.9997 22.9163H24.9997C25.69 22.9163 26.2497 22.3567 26.2497 21.6663C26.2497 20.976 25.69 20.4163 24.9997 20.4163H14.9997ZM13.7497 14.9997C13.7497 14.3093 14.3093 13.7497 14.9997 13.7497H24.9997C25.69 13.7497 26.2497 14.3093 26.2497 14.9997C26.2497 15.69 25.69 16.2497 24.9997 16.2497H14.9997C14.3093 16.2497 13.7497 15.69 13.7497 14.9997Z" fill="#2F448A"/>
<path opacity="0.5" d="M8.72509 6.76367C8.33301 8.23581 8.33301 10.295 8.33301 13.3332V26.6667C8.33301 29.705 8.33301 31.7642 8.72512 33.2363L8.33301 33.2065C6.70786 33.0467 5.61396 32.6853 4.79747 31.8688C3.33301 30.4043 3.33301 28.0473 3.33301 23.3333V16.6667C3.33301 11.9526 3.33301 9.59559 4.79747 8.13114C5.61396 7.31465 6.70786 6.95339 8.33301 6.79352L8.72509 6.76367Z" fill="#2F448A"/>
<path opacity="0.5" d="M31.2744 33.2363C31.6666 31.7642 31.6666 29.705 31.6666 26.6667V13.3332C31.6666 10.295 31.6666 8.23581 31.2746 6.76367L31.6666 6.79352C33.2917 6.95339 34.3857 7.31465 35.2021 8.13114C36.6666 9.59559 36.6666 11.9526 36.6666 16.6667V23.3333C36.6666 28.0473 36.6666 30.4043 35.2021 31.8688C34.3857 32.6853 33.2917 33.0467 31.6666 33.2065L31.2744 33.2363Z" fill="#2F448A"/>
<path d="M49.785 18V6.1H54.426C55.4687 6.1 56.3583 6.26433 57.095 6.593C57.8317 6.92167 58.3983 7.39767 58.795 8.021C59.1917 8.64433 59.39 9.38667 59.39 10.248C59.39 11.1093 59.1917 11.8517 58.795 12.475C58.3983 13.087 57.8317 13.5573 57.095 13.886C56.3583 14.2147 55.4687 14.379 54.426 14.379H50.72L51.485 13.597V18H49.785ZM57.741 18L54.715 13.682H56.534L59.594 18H57.741ZM51.485 13.767L50.72 12.934H54.375C55.463 12.934 56.2847 12.7017 56.84 12.237C57.4067 11.761 57.69 11.098 57.69 10.248C57.69 9.398 57.4067 8.74067 56.84 8.276C56.2847 7.81133 55.463 7.579 54.375 7.579H50.72L51.485 6.729V13.767ZM65.7576 18.102C64.8509 18.102 64.0462 17.9037 63.3436 17.507C62.6409 17.1103 62.0856 16.5663 61.6776 15.875C61.2696 15.1723 61.0656 14.379 61.0656 13.495C61.0656 12.5997 61.2696 11.8063 61.6776 11.115C62.0856 10.4237 62.6409 9.88533 63.3436 9.5C64.0462 9.10333 64.8509 8.905 65.7576 8.905C66.6529 8.905 67.4519 9.10333 68.1546 9.5C68.8686 9.88533 69.4239 10.4237 69.8206 11.115C70.2286 11.795 70.4326 12.5883 70.4326 13.495C70.4326 14.3903 70.2286 15.1837 69.8206 15.875C69.4239 16.5663 68.8686 17.1103 68.1546 17.507C67.4519 17.9037 66.6529 18.102 65.7576 18.102ZM65.7576 16.674C66.3356 16.674 66.8512 16.5437 67.3046 16.283C67.7692 16.0223 68.1319 15.654 68.3926 15.178C68.6532 14.6907 68.7836 14.1297 68.7836 13.495C68.7836 12.849 68.6532 12.2937 68.3926 11.829C68.1319 11.353 67.7692 10.9847 67.3046 10.724C66.8512 10.4633 66.3356 10.333 65.7576 10.333C65.1796 10.333 64.6639 10.4633 64.2106 10.724C63.7572 10.9847 63.3946 11.353 63.1226 11.829C62.8506 12.2937 62.7146 12.849 62.7146 13.495C62.7146 14.1297 62.8506 14.6907 63.1226 15.178C63.3946 15.654 63.7572 16.0223 64.2106 16.283C64.6639 16.5437 65.1796 16.674 65.7576 16.674ZM75.2736 18.102C74.5256 18.102 73.8116 18 73.1316 17.796C72.4629 17.592 71.9359 17.3427 71.5506 17.048L72.2306 15.756C72.6159 16.0167 73.0919 16.2377 73.6586 16.419C74.2252 16.6003 74.8032 16.691 75.3926 16.691C76.1519 16.691 76.6959 16.5833 77.0246 16.368C77.3646 16.1527 77.5346 15.8523 77.5346 15.467C77.5346 15.1837 77.4326 14.9627 77.2286 14.804C77.0246 14.6453 76.7526 14.5263 76.4126 14.447C76.0839 14.3677 75.7156 14.2997 75.3076 14.243C74.8996 14.175 74.4916 14.0957 74.0836 14.005C73.6756 13.903 73.3016 13.767 72.9616 13.597C72.6216 13.4157 72.3496 13.172 72.1456 12.866C71.9416 12.5487 71.8396 12.1293 71.8396 11.608C71.8396 11.064 71.9926 10.588 72.2986 10.18C72.6046 9.772 73.0352 9.46033 73.5906 9.245C74.1572 9.01833 74.8259 8.905 75.5966 8.905C76.1859 8.905 76.7809 8.97867 77.3816 9.126C77.9936 9.262 78.4922 9.46033 78.8776 9.721L78.1806 11.013C77.7726 10.741 77.3476 10.554 76.9056 10.452C76.4636 10.35 76.0216 10.299 75.5796 10.299C74.8656 10.299 74.3329 10.418 73.9816 10.656C73.6302 10.8827 73.4546 11.1773 73.4546 11.54C73.4546 11.846 73.5566 12.084 73.7606 12.254C73.9759 12.4127 74.2479 12.5373 74.5766 12.628C74.9166 12.7187 75.2906 12.798 75.6986 12.866C76.1066 12.9227 76.5146 13.002 76.9226 13.104C77.3306 13.1947 77.6989 13.325 78.0276 13.495C78.3676 13.665 78.6396 13.903 78.8436 14.209C79.0589 14.515 79.1666 14.923 79.1666 15.433C79.1666 15.977 79.0079 16.4473 78.6906 16.844C78.3732 17.2407 77.9256 17.5523 77.3476 17.779C76.7696 17.9943 76.0782 18.102 75.2736 18.102ZM83.8072 18V7.579H79.7272V6.1H89.5702V7.579H85.4902V18H83.8072ZM94.266 18.102C93.3027 18.102 92.4527 17.9037 91.716 17.507C90.9907 17.1103 90.424 16.5663 90.016 15.875C89.6194 15.1837 89.421 14.3903 89.421 13.495C89.421 12.5997 89.6137 11.8063 89.999 11.115C90.3957 10.4237 90.934 9.88533 91.614 9.5C92.3054 9.10333 93.0817 8.905 93.943 8.905C94.8157 8.905 95.5864 9.09767 96.255 9.483C96.9237 9.86833 97.445 10.4123 97.819 11.115C98.2044 11.8063 98.397 12.6167 98.397 13.546C98.397 13.614 98.3914 13.6933 98.38 13.784C98.38 13.8747 98.3744 13.9597 98.363 14.039H90.696V12.866H97.513L96.85 13.274C96.8614 12.696 96.7424 12.1803 96.493 11.727C96.2437 11.2737 95.898 10.9223 95.456 10.673C95.0254 10.4123 94.521 10.282 93.943 10.282C93.3764 10.282 92.872 10.4123 92.43 10.673C91.988 10.9223 91.6424 11.2793 91.393 11.744C91.1437 12.1973 91.019 12.7187 91.019 13.308V13.58C91.019 14.1807 91.155 14.719 91.427 15.195C91.7104 15.6597 92.1014 16.0223 92.6 16.283C93.0987 16.5437 93.671 16.674 94.317 16.674C94.8497 16.674 95.3314 16.5833 95.762 16.402C96.204 16.2207 96.5894 15.9487 96.918 15.586L97.819 16.64C97.411 17.116 96.901 17.4787 96.289 17.728C95.6884 17.9773 95.014 18.102 94.266 18.102ZM103.247 18.102C102.499 18.102 101.785 18 101.105 17.796C100.437 17.592 99.9095 17.3427 99.5242 17.048L100.204 15.756C100.59 16.0167 101.066 16.2377 101.632 16.419C102.199 16.6003 102.777 16.691 103.366 16.691C104.126 16.691 104.67 16.5833 104.998 16.368C105.338 16.1527 105.508 15.8523 105.508 15.467C105.508 15.1837 105.406 14.9627 105.202 14.804C104.998 14.6453 104.726 14.5263 104.386 14.447C104.058 14.3677 103.689 14.2997 103.281 14.243C102.873 14.175 102.465 14.0957 102.057 14.005C101.649 13.903 101.275 13.767 100.935 13.597C100.595 13.4157 100.323 13.172 100.119 12.866C99.9152 12.5487 99.8132 12.1293 99.8132 11.608C99.8132 11.064 99.9662 10.588 100.272 10.18C100.578 9.772 101.009 9.46033 101.564 9.245C102.131 9.01833 102.8 8.905 103.57 8.905C104.16 8.905 104.755 8.97867 105.355 9.126C105.967 9.262 106.466 9.46033 106.851 9.721L106.154 11.013C105.746 10.741 105.321 10.554 104.879 10.452C104.437 10.35 103.995 10.299 103.553 10.299C102.839 10.299 102.307 10.418 101.955 10.656C101.604 10.8827 101.428 11.1773 101.428 11.54C101.428 11.846 101.53 12.084 101.734 12.254C101.95 12.4127 102.222 12.5373 102.55 12.628C102.89 12.7187 103.264 12.798 103.672 12.866C104.08 12.9227 104.488 13.002 104.896 13.104C105.304 13.1947 105.673 13.325 106.001 13.495C106.341 13.665 106.613 13.903 106.817 14.209C107.033 14.515 107.14 14.923 107.14 15.433C107.14 15.977 106.982 16.4473 106.664 16.844C106.347 17.2407 105.899 17.5523 105.321 17.779C104.743 17.9943 104.052 18.102 103.247 18.102ZM112.274 18.102C111.367 18.102 110.664 17.8583 110.166 17.371C109.667 16.8837 109.418 16.1867 109.418 15.28V7.018H111.05V15.212C111.05 15.6993 111.169 16.0733 111.407 16.334C111.656 16.5947 112.007 16.725 112.461 16.725C112.971 16.725 113.396 16.5833 113.736 16.3L114.246 17.473C113.996 17.6883 113.696 17.847 113.345 17.949C113.005 18.051 112.648 18.102 112.274 18.102ZM107.888 10.333V8.99H113.634V10.333H107.888Z" fill="#2F448A"/>
<path d="M52.732 34.126C51.892 34.126 51.1407 33.958 50.478 33.622C49.8247 33.286 49.3113 32.824 48.938 32.236C48.5647 31.6387 48.378 30.9573 48.378 30.192C48.378 29.4267 48.5647 28.75 48.938 28.162C49.3113 27.574 49.8247 27.1167 50.478 26.79C51.1407 26.454 51.892 26.286 52.732 26.286C53.5907 26.286 54.3327 26.468 54.958 26.832C55.5833 27.196 56.0267 27.7093 56.288 28.372L54.23 29.422C54.0527 29.0673 53.8333 28.8107 53.572 28.652C53.3107 28.484 53.026 28.4 52.718 28.4C52.41 28.4 52.13 28.47 51.878 28.61C51.626 28.75 51.4253 28.9553 51.276 29.226C51.136 29.4873 51.066 29.8093 51.066 30.192C51.066 30.584 51.136 30.9153 51.276 31.186C51.4253 31.4567 51.626 31.662 51.878 31.802C52.13 31.942 52.41 32.012 52.718 32.012C53.026 32.012 53.3107 31.9327 53.572 31.774C53.8333 31.606 54.0527 31.3447 54.23 30.99L56.288 32.04C56.0267 32.7027 55.5833 33.216 54.958 33.58C54.3327 33.944 53.5907 34.126 52.732 34.126ZM61.1835 34.126C60.2875 34.126 59.5035 33.958 58.8315 33.622C58.1688 33.2767 57.6508 32.81 57.2775 32.222C56.9135 31.6247 56.7315 30.948 56.7315 30.192C56.7315 29.436 56.9088 28.764 57.2635 28.176C57.6275 27.5787 58.1268 27.1167 58.7615 26.79C59.3962 26.454 60.1102 26.286 60.9035 26.286C61.6502 26.286 62.3315 26.44 62.9475 26.748C63.5635 27.0467 64.0535 27.49 64.4175 28.078C64.7815 28.666 64.9635 29.38 64.9635 30.22C64.9635 30.3133 64.9588 30.4207 64.9495 30.542C64.9402 30.6633 64.9308 30.7753 64.9215 30.878H58.9155V29.478H63.5075L62.4995 29.87C62.5088 29.5247 62.4435 29.226 62.3035 28.974C62.1728 28.722 61.9862 28.526 61.7435 28.386C61.5102 28.246 61.2348 28.176 60.9175 28.176C60.6002 28.176 60.3202 28.246 60.0775 28.386C59.8442 28.526 59.6622 28.7267 59.5315 28.988C59.4008 29.24 59.3355 29.5387 59.3355 29.884V30.29C59.3355 30.6633 59.4102 30.9853 59.5595 31.256C59.7182 31.5267 59.9422 31.7367 60.2315 31.886C60.5208 32.026 60.8662 32.096 61.2675 32.096C61.6408 32.096 61.9582 32.0447 62.2195 31.942C62.4902 31.83 62.7562 31.662 63.0175 31.438L64.4175 32.894C64.0535 33.2953 63.6055 33.6033 63.0735 33.818C62.5415 34.0233 61.9115 34.126 61.1835 34.126ZM66.1899 34V26.412H68.7239V28.624L68.3459 27.994C68.5699 27.4247 68.9339 27 69.4379 26.72C69.9419 26.4307 70.5533 26.286 71.2719 26.286V28.68C71.1506 28.6613 71.0433 28.652 70.9499 28.652C70.8659 28.6427 70.7726 28.638 70.6699 28.638C70.1286 28.638 69.6899 28.7873 69.3539 29.086C69.0179 29.3753 68.8499 29.8513 68.8499 30.514V34H66.1899ZM75.99 34.126C75.0194 34.126 74.2634 33.888 73.722 33.412C73.1807 32.9267 72.91 32.1987 72.91 31.228V24.718H75.57V31.2C75.57 31.4707 75.6447 31.6853 75.794 31.844C75.9434 31.9933 76.1347 32.068 76.368 32.068C76.6854 32.068 76.956 31.9887 77.18 31.83L77.838 33.692C77.614 33.8413 77.3387 33.9487 77.012 34.014C76.6854 34.0887 76.3447 34.126 75.99 34.126ZM71.804 28.68V26.692H77.306V28.68H71.804ZM78.8638 34V26.412H81.5238V34H78.8638ZM80.1938 25.572C79.7084 25.572 79.3164 25.4367 79.0178 25.166C78.7191 24.8953 78.5698 24.5593 78.5698 24.158C78.5698 23.7567 78.7191 23.4207 79.0178 23.15C79.3164 22.8793 79.7084 22.744 80.1938 22.744C80.6791 22.744 81.0711 22.8747 81.3698 23.136C81.6684 23.388 81.8178 23.7147 81.8178 24.116C81.8178 24.536 81.6684 24.886 81.3698 25.166C81.0804 25.4367 80.6884 25.572 80.1938 25.572ZM83.5604 34V26.496C83.5604 25.5813 83.8311 24.8533 84.3724 24.312C84.9231 23.7613 85.7071 23.486 86.7244 23.486C87.0511 23.486 87.3731 23.5187 87.6904 23.584C88.0078 23.6493 88.2738 23.7473 88.4884 23.878L87.8304 25.754C87.7184 25.6887 87.5924 25.6373 87.4524 25.6C87.3124 25.5533 87.1724 25.53 87.0324 25.53C86.7524 25.53 86.5331 25.614 86.3744 25.782C86.2251 25.9407 86.1504 26.188 86.1504 26.524V27.07L86.2204 28.176V34H83.5604ZM82.4544 28.68V26.692H87.9564V28.68H82.4544ZM90.3787 36.842C89.9773 36.842 89.5713 36.7767 89.1607 36.646C88.7593 36.5247 88.4327 36.3613 88.1807 36.156L89.1047 34.294C89.2633 34.434 89.4453 34.5413 89.6507 34.616C89.8653 34.7 90.0753 34.742 90.2807 34.742C90.57 34.742 90.7987 34.6767 90.9667 34.546C91.1347 34.4153 91.2793 34.21 91.4007 33.93L91.7507 33.048L91.9607 32.782L94.5367 26.412H97.0707L93.7947 34.308C93.5333 34.9613 93.23 35.47 92.8847 35.834C92.5487 36.2073 92.1707 36.4687 91.7507 36.618C91.34 36.7673 90.8827 36.842 90.3787 36.842ZM91.4147 34.322L88.0687 26.412H90.7987L93.2627 32.544L91.4147 34.322Z" fill="#0C1227"/>
</svg>
