<svg width="12" height="13" viewBox="0 0 12 13" fill="none" xmlns="http://www.w3.org/2000/svg">
<path d="M4.85509 5.60497L6.00009 4.45497L7.14509 5.60497C7.19157 5.65183 7.24687 5.68903 7.3078 5.71442C7.36873 5.7398 7.43409 5.75287 7.50009 5.75287C7.5661 5.75287 7.63145 5.7398 7.69238 5.71442C7.75331 5.68903 7.80861 5.65183 7.85509 5.60497C7.90196 5.55849 7.93915 5.50319 7.96454 5.44226C7.98992 5.38133 8.00299 5.31598 8.00299 5.24997C8.00299 5.18396 7.98992 5.11861 7.96454 5.05768C7.93915 4.99675 7.90196 4.94145 7.85509 4.89497L6.35509 3.39497C6.30861 3.34811 6.25331 3.31091 6.19238 3.28552C6.13145 3.26014 6.0661 3.24707 6.00009 3.24707C5.93409 3.24707 5.86873 3.26014 5.8078 3.28552C5.74687 3.31091 5.69157 3.34811 5.64509 3.39497L4.14509 4.89497C4.05094 4.98912 3.99805 5.11682 3.99805 5.24997C3.99805 5.38312 4.05094 5.51082 4.14509 5.60497C4.23924 5.69912 4.36694 5.75202 4.50009 5.75202C4.63324 5.75202 4.76094 5.69912 4.85509 5.60497Z" fill="#2F448A"/>
<path opacity="0.32" d="M7.14509 7.89503L6.00009 9.04503L4.85509 7.89503C4.80847 7.84841 4.75313 7.81143 4.69222 7.7862C4.63131 7.76097 4.56602 7.74799 4.50009 7.74799C4.43416 7.74799 4.36888 7.76097 4.30797 7.7862C4.24706 7.81143 4.19171 7.84841 4.14509 7.89503C4.09847 7.94165 4.06149 7.997 4.03626 8.05791C4.01103 8.11882 3.99805 8.1841 3.99805 8.25003C3.99805 8.31596 4.01103 8.38125 4.03626 8.44216C4.06149 8.50307 4.09847 8.55841 4.14509 8.60503L5.64509 10.105C5.69157 10.1519 5.74687 10.1891 5.8078 10.2145C5.86873 10.2399 5.93409 10.2529 6.00009 10.2529C6.0661 10.2529 6.13145 10.2399 6.19238 10.2145C6.25331 10.1891 6.30861 10.1519 6.35509 10.105L7.85509 8.60503C7.94924 8.51088 8.00214 8.38318 8.00214 8.25003C8.00214 8.11688 7.94924 7.98918 7.85509 7.89503C7.76094 7.80088 7.63324 7.74799 7.50009 7.74799C7.36694 7.74799 7.23924 7.80088 7.14509 7.89503Z" fill="#0C1227"/>
</svg>
